<svg width="32" height="32" viewBox="0 0 32 32" fill="none" xmlns="http://www.w3.org/2000/svg">
<rect x="6.66663" y="12" width="18.6667" height="13.3333" fill="black"/>
<path d="M24.4408 26.6667H7.55908C6.33241 26.6667 5.33316 25.6684 5.33316 24.4408V9.33743C5.33316 8.10993 6.33233 7.11065 7.55993 7.11065H24.4399C25.6674 7.11065 26.6667 8.10982 26.6667 9.33743V24.4408C26.6667 25.6683 25.6684 26.6667 24.4408 26.6667ZM7.55993 8.88921C7.31242 8.88921 7.11076 9.09088 7.11076 9.33839V24.4417C7.11076 24.6893 7.31159 24.8901 7.5591 24.8901H24.4408C24.6883 24.8901 24.8891 24.6893 24.8891 24.4417V9.33839C24.8891 9.09088 24.6875 8.88921 24.44 8.88921H7.55993ZM25.7775 12.4442H6.22169C5.73086 12.4442 5.33252 12.0459 5.33252 11.555C5.33252 11.0642 5.73086 10.6659 6.22169 10.6659H25.7775C26.2692 10.6659 26.6667 11.0642 26.6667 11.555C26.6667 12.0459 26.2692 12.4442 25.7775 12.4442ZM9.77753 9.77753C9.2867 9.77753 8.88836 9.3792 8.88836 8.88836V6.22169C8.88836 5.73086 9.2867 5.33252 9.77753 5.33252C10.2684 5.33252 10.6667 5.73086 10.6667 6.22169V8.88836C10.6667 9.3792 10.2684 9.77753 9.77753 9.77753ZM22.2225 9.77753C21.7309 9.77753 21.3334 9.3792 21.3334 8.88836V6.22169C21.3334 5.73086 21.7309 5.33252 22.2225 5.33252C22.7142 5.33252 23.1117 5.73086 23.1117 6.22169V8.88836C23.1117 9.3792 22.7142 9.77753 22.2225 9.77753Z" fill="black"/>
<path d="M11.5559 22.2225C11.5559 23.4075 9.77759 23.4075 9.77759 22.2225C9.77759 21.0367 11.5559 21.0367 11.5559 22.2225Z" fill="#EFF5F5"/>
<path d="M11.5559 18.6667C11.5559 19.8517 9.77759 19.8517 9.77759 18.6667C9.77759 17.4817 11.5559 17.4817 11.5559 18.6667Z" fill="#EFF5F5"/>
<path d="M14.2225 22.2225C14.2225 23.4075 12.4442 23.4075 12.4442 22.2225C12.4442 21.0367 14.2225 21.0367 14.2225 22.2225Z" fill="#EFF5F5"/>
<path d="M14.2225 18.6667C14.2225 19.8517 12.4442 19.8517 12.4442 18.6667C12.4442 17.4817 14.2225 17.4817 14.2225 18.6667Z" fill="#EFF5F5"/>
<path d="M14.2225 15.1109C14.2225 16.2968 12.4442 16.2968 12.4442 15.1109C12.4442 13.9259 14.2225 13.9259 14.2225 15.1109Z" fill="#EFF5F5"/>
<path d="M19.5559 22.2225C19.5559 23.4075 17.7776 23.4075 17.7776 22.2225C17.7776 21.0367 19.5559 21.0367 19.5559 22.2225Z" fill="#EFF5F5"/>
<path d="M19.5559 18.6667C19.5559 19.8517 17.7776 19.8517 17.7776 18.6667C17.7776 17.4817 19.5559 17.4817 19.5559 18.6667Z" fill="#EFF5F5"/>
<path d="M19.5559 15.1109C19.5559 16.2968 17.7776 16.2968 17.7776 15.1109C17.7776 13.9259 19.5559 13.9259 19.5559 15.1109Z" fill="#EFF5F5"/>
<path d="M22.2225 18.6667C22.2225 19.8517 20.4442 19.8517 20.4442 18.6667C20.4442 17.4817 22.2225 17.4817 22.2225 18.6667Z" fill="#EFF5F5"/>
<path d="M22.2225 15.1109C22.2225 16.2968 20.4442 16.2968 20.4442 15.1109C20.4442 13.9259 22.2225 13.9259 22.2225 15.1109Z" fill="#EFF5F5"/>
<path d="M16.8892 22.2225C16.8892 23.4075 15.1108 23.4075 15.1108 22.2225C15.1108 21.0367 16.8892 21.0367 16.8892 22.2225Z" fill="#EFF5F5"/>
<path d="M16.8892 18.6667C16.8892 19.8517 15.1108 19.8517 15.1108 18.6667C15.1108 17.4817 16.8892 17.4817 16.8892 18.6667Z" fill="#EFF5F5"/>
<path d="M16.8892 15.1109C16.8892 16.2968 15.1108 16.2968 15.1108 15.1109C15.1108 13.9259 16.8892 13.9259 16.8892 15.1109Z" fill="#EFF5F5"/>
</svg>
