<svg height='100px' width='100px'  fill="#000000" xmlns="http://www.w3.org/2000/svg" xmlns:xlink="http://www.w3.org/1999/xlink" version="1.1" x="0px" y="0px" viewBox="0 0 100 100" style="enable-background:new 0 0 100 100;" xml:space="preserve"><path d="M89.9,11.08c-0.02-0.05-0.03-0.1-0.06-0.14c-0.08-0.17-0.18-0.34-0.31-0.47c-0.14-0.14-0.3-0.24-0.48-0.32  c-0.04-0.02-0.09-0.04-0.13-0.05c-0.15-0.05-0.3-0.08-0.46-0.09c-0.03,0-0.06-0.01-0.09-0.01c-0.16,0-0.33,0.02-0.49,0.08  L11.1,35.67c-0.64,0.21-1.08,0.81-1.1,1.49c-0.02,0.68,0.4,1.29,1.03,1.54l36.3,13.96l13.96,36.3c0.24,0.62,0.84,1.03,1.5,1.03  c0.01,0,0.02,0,0.04,0c0.68-0.01,1.27-0.45,1.49-1.1l25.6-76.79c0.05-0.16,0.07-0.32,0.08-0.48c0-0.04-0.01-0.07-0.01-0.11  C89.98,11.37,89.95,11.23,89.9,11.08z M16.37,37.31l66.07-22.02L48.18,49.54L16.37,37.31z M62.69,83.63L50.46,51.82l34.26-34.26  L62.69,83.63z"></path></svg>